<svg xmlns="http://www.w3.org/2000/svg" viewBox="0 0 13.5 13.53"><title>icon-linkedin</title><metadata><?xpacket begin="﻿" id="W5M0MpCehiHzreSzNTczkc9d"?>
<x:xmpmeta xmlns:x="adobe:ns:meta/" x:xmptk="Adobe XMP Core 5.6-c111 79.158366, 2015/09/25-01:12:00        ">
   <rdf:RDF xmlns:rdf="http://www.w3.org/1999/02/22-rdf-syntax-ns#">
      <rdf:Description rdf:about=""
            xmlns:dc="http://purl.org/dc/elements/1.1/">
         <dc:title>
            <rdf:Alt>
               <rdf:li xml:lang="x-default">icon-linkedin</rdf:li>
            </rdf:Alt>
         </dc:title>
      </rdf:Description>
   </rdf:RDF>
</x:xmpmeta>
                                                                                                    
                                                                                                    
                                                                                                    
                                                                                                    
                                                                                                    
                                                                                                    
                                                                                                    
                                                                                                    
                                                                                                    
                                                                                                    
                                                                                                    
                                                                                                    
                                                                                                    
                                                                                                    
                                                                                                    
                                                                                                    
                                                                                                    
                                                                                                    
                                                                                                    
                                                                                                    
                           
<?xpacket end="w"?></metadata>
<path d="M12.5,0H1A1,1,0,0,0,0,1V12.53a1,1,0,0,0,1,1H12.5a1,1,0,0,0,1-1V1A1,1,0,0,0,12.5,0ZM4,11.5H2V5.06H4V11.5ZM3,4.18A1.16,1.16,0,1,1,4.16,3h0A1.16,1.16,0,0,1,3,4.18Zm8.5,7.32h-2V8.37c0-.75,0-1.71-1-1.71s-1.2.81-1.2,1.65V11.5h-2V5.06H7.18V5.94h0a2.1,2.1,0,0,1,1.89-1c2,0,2.4,1.33,2.4,3.07v3.53Z" transform="translate(0 0)" fill="#828282"/></svg>