<svg id="Layer_1" data-name="Layer 1" xmlns="http://www.w3.org/2000/svg" viewBox="0 0 13.5 13.5"><defs><style>.cls-1{fill:#828282;}</style></defs><title>icon-twitter</title><path class="cls-1" d="M13.75,1.25H2.25a1,1,0,0,0-1,1V13.78a1,1,0,0,0,1,1H13.75a1,1,0,0,0,1-1V2.22A1,1,0,0,0,13.75,1.25Zm-8.5,11.5h-2V6.31h2v6.44Zm-1-7.32A1.16,1.16,0,1,1,5.41,4.27,1.16,1.16,0,0,1,4.25,5.43Zm8.5,7.32h-2V9.62c0-.75,0-1.71-1-1.71s-1.2.81-1.2,1.65v3.19h-2V6.31H8.43V7.19h0a2.1,2.1,0,0,1,1.89-1c2,0,2.4,1.33,2.4,3.07v3.53Z" transform="translate(-1.25 -1.25)"/></svg>